<svg version="1.1" xmlns="http://www.w3.org/2000/svg" xmlns:xlink="http://www.w3.org/1999/xlink" width="885" height="630"><defs/><g><text fill="#eeeeee" stroke="none" font-family="Arial" font-size="24px" font-style="normal" font-weight="normal" text-decoration="none" x="0" y="0">UNREGISTERED</text><text fill="#eeeeee" stroke="none" font-family="Arial" font-size="24px" font-style="normal" font-weight="normal" text-decoration="none" x="0" y="30">UNREGISTERED</text><text fill="#eeeeee" stroke="none" font-family="Arial" font-size="24px" font-style="normal" font-weight="normal" text-decoration="none" x="0" y="60">UNREGISTERED</text><text fill="#eeeeee" stroke="none" font-family="Arial" font-size="24px" font-style="normal" font-weight="normal" text-decoration="none" x="0" y="90">UNREGISTERED</text><text fill="#eeeeee" stroke="none" font-family="Arial" font-size="24px" font-style="normal" font-weight="normal" text-decoration="none" x="0" y="120">UNREGISTERED</text><text fill="#eeeeee" stroke="none" font-family="Arial" font-size="24px" font-style="normal" font-weight="normal" text-decoration="none" x="0" y="150">UNREGISTERED</text><text fill="#eeeeee" stroke="none" font-family="Arial" font-size="24px" font-style="normal" font-weight="normal" text-decoration="none" x="0" y="180">UNREGISTERED</text><text fill="#eeeeee" stroke="none" font-family="Arial" font-size="24px" font-style="normal" font-weight="normal" text-decoration="none" x="0" y="210">UNREGISTERED</text><text fill="#eeeeee" stroke="none" font-family="Arial" font-size="24px" font-style="normal" font-weight="normal" text-decoration="none" x="0" y="240">UNREGISTERED</text><text fill="#eeeeee" stroke="none" font-family="Arial" font-size="24px" font-style="normal" font-weight="normal" text-decoration="none" x="0" y="270">UNREGISTERED</text><text fill="#eeeeee" stroke="none" font-family="Arial" font-size="24px" font-style="normal" font-weight="normal" text-decoration="none" x="0" y="300">UNREGISTERED</text><text fill="#eeeeee" stroke="none" font-family="Arial" font-size="24px" font-style="normal" font-weight="normal" text-decoration="none" x="0" y="330">UNREGISTERED</text><text fill="#eeeeee" stroke="none" font-family="Arial" font-size="24px" font-style="normal" font-weight="normal" text-decoration="none" x="0" y="360">UNREGISTERED</text><text fill="#eeeeee" stroke="none" font-family="Arial" font-size="24px" font-style="normal" font-weight="normal" text-decoration="none" x="0" y="390">UNREGISTERED</text><text fill="#eeeeee" stroke="none" font-family="Arial" font-size="24px" font-style="normal" font-weight="normal" text-decoration="none" x="0" y="420">UNREGISTERED</text><text fill="#eeeeee" stroke="none" font-family="Arial" font-size="24px" font-style="normal" font-weight="normal" text-decoration="none" x="0" y="450">UNREGISTERED</text><text fill="#eeeeee" stroke="none" font-family="Arial" font-size="24px" font-style="normal" font-weight="normal" text-decoration="none" x="0" y="480">UNREGISTERED</text><text fill="#eeeeee" stroke="none" font-family="Arial" font-size="24px" font-style="normal" font-weight="normal" text-decoration="none" x="0" y="510">UNREGISTERED</text><text fill="#eeeeee" stroke="none" font-family="Arial" font-size="24px" font-style="normal" font-weight="normal" text-decoration="none" x="0" y="540">UNREGISTERED</text><text fill="#eeeeee" stroke="none" font-family="Arial" font-size="24px" font-style="normal" font-weight="normal" text-decoration="none" x="0" y="570">UNREGISTERED</text><text fill="#eeeeee" stroke="none" font-family="Arial" font-size="24px" font-style="normal" font-weight="normal" text-decoration="none" x="0" y="600">UNREGISTERED</text><text fill="#eeeeee" stroke="none" font-family="Arial" font-size="24px" font-style="normal" font-weight="normal" text-decoration="none" x="200" y="0">UNREGISTERED</text><text fill="#eeeeee" stroke="none" font-family="Arial" font-size="24px" font-style="normal" font-weight="normal" text-decoration="none" x="200" y="30">UNREGISTERED</text><text fill="#eeeeee" stroke="none" font-family="Arial" font-size="24px" font-style="normal" font-weight="normal" text-decoration="none" x="200" y="60">UNREGISTERED</text><text fill="#eeeeee" stroke="none" font-family="Arial" font-size="24px" font-style="normal" font-weight="normal" text-decoration="none" x="200" y="90">UNREGISTERED</text><text fill="#eeeeee" stroke="none" font-family="Arial" font-size="24px" font-style="normal" font-weight="normal" text-decoration="none" x="200" y="120">UNREGISTERED</text><text fill="#eeeeee" stroke="none" font-family="Arial" font-size="24px" font-style="normal" font-weight="normal" text-decoration="none" x="200" y="150">UNREGISTERED</text><text fill="#eeeeee" stroke="none" font-family="Arial" font-size="24px" font-style="normal" font-weight="normal" text-decoration="none" x="200" y="180">UNREGISTERED</text><text fill="#eeeeee" stroke="none" font-family="Arial" font-size="24px" font-style="normal" font-weight="normal" text-decoration="none" x="200" y="210">UNREGISTERED</text><text fill="#eeeeee" stroke="none" font-family="Arial" font-size="24px" font-style="normal" font-weight="normal" text-decoration="none" x="200" y="240">UNREGISTERED</text><text fill="#eeeeee" stroke="none" font-family="Arial" font-size="24px" font-style="normal" font-weight="normal" text-decoration="none" x="200" y="270">UNREGISTERED</text><text fill="#eeeeee" stroke="none" font-family="Arial" font-size="24px" font-style="normal" font-weight="normal" text-decoration="none" x="200" y="300">UNREGISTERED</text><text fill="#eeeeee" stroke="none" font-family="Arial" font-size="24px" font-style="normal" font-weight="normal" text-decoration="none" x="200" y="330">UNREGISTERED</text><text fill="#eeeeee" stroke="none" font-family="Arial" font-size="24px" font-style="normal" font-weight="normal" text-decoration="none" x="200" y="360">UNREGISTERED</text><text fill="#eeeeee" stroke="none" font-family="Arial" font-size="24px" font-style="normal" font-weight="normal" text-decoration="none" x="200" y="390">UNREGISTERED</text><text fill="#eeeeee" stroke="none" font-family="Arial" font-size="24px" font-style="normal" font-weight="normal" text-decoration="none" x="200" y="420">UNREGISTERED</text><text fill="#eeeeee" stroke="none" font-family="Arial" font-size="24px" font-style="normal" font-weight="normal" text-decoration="none" x="200" y="450">UNREGISTERED</text><text fill="#eeeeee" stroke="none" font-family="Arial" font-size="24px" font-style="normal" font-weight="normal" text-decoration="none" x="200" y="480">UNREGISTERED</text><text fill="#eeeeee" stroke="none" font-family="Arial" font-size="24px" font-style="normal" font-weight="normal" text-decoration="none" x="200" y="510">UNREGISTERED</text><text fill="#eeeeee" stroke="none" font-family="Arial" font-size="24px" font-style="normal" font-weight="normal" text-decoration="none" x="200" y="540">UNREGISTERED</text><text fill="#eeeeee" stroke="none" font-family="Arial" font-size="24px" font-style="normal" font-weight="normal" text-decoration="none" x="200" y="570">UNREGISTERED</text><text fill="#eeeeee" stroke="none" font-family="Arial" font-size="24px" font-style="normal" font-weight="normal" text-decoration="none" x="200" y="600">UNREGISTERED</text><text fill="#eeeeee" stroke="none" font-family="Arial" font-size="24px" font-style="normal" font-weight="normal" text-decoration="none" x="400" y="0">UNREGISTERED</text><text fill="#eeeeee" stroke="none" font-family="Arial" font-size="24px" font-style="normal" font-weight="normal" text-decoration="none" x="400" y="30">UNREGISTERED</text><text fill="#eeeeee" stroke="none" font-family="Arial" font-size="24px" font-style="normal" font-weight="normal" text-decoration="none" x="400" y="60">UNREGISTERED</text><text fill="#eeeeee" stroke="none" font-family="Arial" font-size="24px" font-style="normal" font-weight="normal" text-decoration="none" x="400" y="90">UNREGISTERED</text><text fill="#eeeeee" stroke="none" font-family="Arial" font-size="24px" font-style="normal" font-weight="normal" text-decoration="none" x="400" y="120">UNREGISTERED</text><text fill="#eeeeee" stroke="none" font-family="Arial" font-size="24px" font-style="normal" font-weight="normal" text-decoration="none" x="400" y="150">UNREGISTERED</text><text fill="#eeeeee" stroke="none" font-family="Arial" font-size="24px" font-style="normal" font-weight="normal" text-decoration="none" x="400" y="180">UNREGISTERED</text><text fill="#eeeeee" stroke="none" font-family="Arial" font-size="24px" font-style="normal" font-weight="normal" text-decoration="none" x="400" y="210">UNREGISTERED</text><text fill="#eeeeee" stroke="none" font-family="Arial" font-size="24px" font-style="normal" font-weight="normal" text-decoration="none" x="400" y="240">UNREGISTERED</text><text fill="#eeeeee" stroke="none" font-family="Arial" font-size="24px" font-style="normal" font-weight="normal" text-decoration="none" x="400" y="270">UNREGISTERED</text><text fill="#eeeeee" stroke="none" font-family="Arial" font-size="24px" font-style="normal" font-weight="normal" text-decoration="none" x="400" y="300">UNREGISTERED</text><text fill="#eeeeee" stroke="none" font-family="Arial" font-size="24px" font-style="normal" font-weight="normal" text-decoration="none" x="400" y="330">UNREGISTERED</text><text fill="#eeeeee" stroke="none" font-family="Arial" font-size="24px" font-style="normal" font-weight="normal" text-decoration="none" x="400" y="360">UNREGISTERED</text><text fill="#eeeeee" stroke="none" font-family="Arial" font-size="24px" font-style="normal" font-weight="normal" text-decoration="none" x="400" y="390">UNREGISTERED</text><text fill="#eeeeee" stroke="none" font-family="Arial" font-size="24px" font-style="normal" font-weight="normal" text-decoration="none" x="400" y="420">UNREGISTERED</text><text fill="#eeeeee" stroke="none" font-family="Arial" font-size="24px" font-style="normal" font-weight="normal" text-decoration="none" x="400" y="450">UNREGISTERED</text><text fill="#eeeeee" stroke="none" font-family="Arial" font-size="24px" font-style="normal" font-weight="normal" text-decoration="none" x="400" y="480">UNREGISTERED</text><text fill="#eeeeee" stroke="none" font-family="Arial" font-size="24px" font-style="normal" font-weight="normal" text-decoration="none" x="400" y="510">UNREGISTERED</text><text fill="#eeeeee" stroke="none" font-family="Arial" font-size="24px" font-style="normal" font-weight="normal" text-decoration="none" x="400" y="540">UNREGISTERED</text><text fill="#eeeeee" stroke="none" font-family="Arial" font-size="24px" font-style="normal" font-weight="normal" text-decoration="none" x="400" y="570">UNREGISTERED</text><text fill="#eeeeee" stroke="none" font-family="Arial" font-size="24px" font-style="normal" font-weight="normal" text-decoration="none" x="400" y="600">UNREGISTERED</text><text fill="#eeeeee" stroke="none" font-family="Arial" font-size="24px" font-style="normal" font-weight="normal" text-decoration="none" x="600" y="0">UNREGISTERED</text><text fill="#eeeeee" stroke="none" font-family="Arial" font-size="24px" font-style="normal" font-weight="normal" text-decoration="none" x="600" y="30">UNREGISTERED</text><text fill="#eeeeee" stroke="none" font-family="Arial" font-size="24px" font-style="normal" font-weight="normal" text-decoration="none" x="600" y="60">UNREGISTERED</text><text fill="#eeeeee" stroke="none" font-family="Arial" font-size="24px" font-style="normal" font-weight="normal" text-decoration="none" x="600" y="90">UNREGISTERED</text><text fill="#eeeeee" stroke="none" font-family="Arial" font-size="24px" font-style="normal" font-weight="normal" text-decoration="none" x="600" y="120">UNREGISTERED</text><text fill="#eeeeee" stroke="none" font-family="Arial" font-size="24px" font-style="normal" font-weight="normal" text-decoration="none" x="600" y="150">UNREGISTERED</text><text fill="#eeeeee" stroke="none" font-family="Arial" font-size="24px" font-style="normal" font-weight="normal" text-decoration="none" x="600" y="180">UNREGISTERED</text><text fill="#eeeeee" stroke="none" font-family="Arial" font-size="24px" font-style="normal" font-weight="normal" text-decoration="none" x="600" y="210">UNREGISTERED</text><text fill="#eeeeee" stroke="none" font-family="Arial" font-size="24px" font-style="normal" font-weight="normal" text-decoration="none" x="600" y="240">UNREGISTERED</text><text fill="#eeeeee" stroke="none" font-family="Arial" font-size="24px" font-style="normal" font-weight="normal" text-decoration="none" x="600" y="270">UNREGISTERED</text><text fill="#eeeeee" stroke="none" font-family="Arial" font-size="24px" font-style="normal" font-weight="normal" text-decoration="none" x="600" y="300">UNREGISTERED</text><text fill="#eeeeee" stroke="none" font-family="Arial" font-size="24px" font-style="normal" font-weight="normal" text-decoration="none" x="600" y="330">UNREGISTERED</text><text fill="#eeeeee" stroke="none" font-family="Arial" font-size="24px" font-style="normal" font-weight="normal" text-decoration="none" x="600" y="360">UNREGISTERED</text><text fill="#eeeeee" stroke="none" font-family="Arial" font-size="24px" font-style="normal" font-weight="normal" text-decoration="none" x="600" y="390">UNREGISTERED</text><text fill="#eeeeee" stroke="none" font-family="Arial" font-size="24px" font-style="normal" font-weight="normal" text-decoration="none" x="600" y="420">UNREGISTERED</text><text fill="#eeeeee" stroke="none" font-family="Arial" font-size="24px" font-style="normal" font-weight="normal" text-decoration="none" x="600" y="450">UNREGISTERED</text><text fill="#eeeeee" stroke="none" font-family="Arial" font-size="24px" font-style="normal" font-weight="normal" text-decoration="none" x="600" y="480">UNREGISTERED</text><text fill="#eeeeee" stroke="none" font-family="Arial" font-size="24px" font-style="normal" font-weight="normal" text-decoration="none" x="600" y="510">UNREGISTERED</text><text fill="#eeeeee" stroke="none" font-family="Arial" font-size="24px" font-style="normal" font-weight="normal" text-decoration="none" x="600" y="540">UNREGISTERED</text><text fill="#eeeeee" stroke="none" font-family="Arial" font-size="24px" font-style="normal" font-weight="normal" text-decoration="none" x="600" y="570">UNREGISTERED</text><text fill="#eeeeee" stroke="none" font-family="Arial" font-size="24px" font-style="normal" font-weight="normal" text-decoration="none" x="600" y="600">UNREGISTERED</text><text fill="#eeeeee" stroke="none" font-family="Arial" font-size="24px" font-style="normal" font-weight="normal" text-decoration="none" x="800" y="0">UNREGISTERED</text><text fill="#eeeeee" stroke="none" font-family="Arial" font-size="24px" font-style="normal" font-weight="normal" text-decoration="none" x="800" y="30">UNREGISTERED</text><text fill="#eeeeee" stroke="none" font-family="Arial" font-size="24px" font-style="normal" font-weight="normal" text-decoration="none" x="800" y="60">UNREGISTERED</text><text fill="#eeeeee" stroke="none" font-family="Arial" font-size="24px" font-style="normal" font-weight="normal" text-decoration="none" x="800" y="90">UNREGISTERED</text><text fill="#eeeeee" stroke="none" font-family="Arial" font-size="24px" font-style="normal" font-weight="normal" text-decoration="none" x="800" y="120">UNREGISTERED</text><text fill="#eeeeee" stroke="none" font-family="Arial" font-size="24px" font-style="normal" font-weight="normal" text-decoration="none" x="800" y="150">UNREGISTERED</text><text fill="#eeeeee" stroke="none" font-family="Arial" font-size="24px" font-style="normal" font-weight="normal" text-decoration="none" x="800" y="180">UNREGISTERED</text><text fill="#eeeeee" stroke="none" font-family="Arial" font-size="24px" font-style="normal" font-weight="normal" text-decoration="none" x="800" y="210">UNREGISTERED</text><text fill="#eeeeee" stroke="none" font-family="Arial" font-size="24px" font-style="normal" font-weight="normal" text-decoration="none" x="800" y="240">UNREGISTERED</text><text fill="#eeeeee" stroke="none" font-family="Arial" font-size="24px" font-style="normal" font-weight="normal" text-decoration="none" x="800" y="270">UNREGISTERED</text><text fill="#eeeeee" stroke="none" font-family="Arial" font-size="24px" font-style="normal" font-weight="normal" text-decoration="none" x="800" y="300">UNREGISTERED</text><text fill="#eeeeee" stroke="none" font-family="Arial" font-size="24px" font-style="normal" font-weight="normal" text-decoration="none" x="800" y="330">UNREGISTERED</text><text fill="#eeeeee" stroke="none" font-family="Arial" font-size="24px" font-style="normal" font-weight="normal" text-decoration="none" x="800" y="360">UNREGISTERED</text><text fill="#eeeeee" stroke="none" font-family="Arial" font-size="24px" font-style="normal" font-weight="normal" text-decoration="none" x="800" y="390">UNREGISTERED</text><text fill="#eeeeee" stroke="none" font-family="Arial" font-size="24px" font-style="normal" font-weight="normal" text-decoration="none" x="800" y="420">UNREGISTERED</text><text fill="#eeeeee" stroke="none" font-family="Arial" font-size="24px" font-style="normal" font-weight="normal" text-decoration="none" x="800" y="450">UNREGISTERED</text><text fill="#eeeeee" stroke="none" font-family="Arial" font-size="24px" font-style="normal" font-weight="normal" text-decoration="none" x="800" y="480">UNREGISTERED</text><text fill="#eeeeee" stroke="none" font-family="Arial" font-size="24px" font-style="normal" font-weight="normal" text-decoration="none" x="800" y="510">UNREGISTERED</text><text fill="#eeeeee" stroke="none" font-family="Arial" font-size="24px" font-style="normal" font-weight="normal" text-decoration="none" x="800" y="540">UNREGISTERED</text><text fill="#eeeeee" stroke="none" font-family="Arial" font-size="24px" font-style="normal" font-weight="normal" text-decoration="none" x="800" y="570">UNREGISTERED</text><text fill="#eeeeee" stroke="none" font-family="Arial" font-size="24px" font-style="normal" font-weight="normal" text-decoration="none" x="800" y="600">UNREGISTERED</text><g transform="translate(-206,-318) scale(1,1)"><path fill="#ffffff" stroke="none" d="M 254.43571750710228 545.6800000000001 C 254.43571750710228 540.8861679360001 258.32155983204774 537 263.114990234375 537 C 267.90842063670226 537 271.79426296164775 540.8861679360001 271.79426296164775 545.6800000000001 C 271.79426296164775 550.473832064 267.90842063670226 554.36 263.114990234375 554.36 C 258.32155983204774 554.36 254.43571750710228 550.473832064 254.43571750710228 545.6800000000001 Z"/></g><g transform="translate(-206,-318) scale(1,1)"><path fill="none" stroke="#000000" d="M 254.43571750710228 545.6800000000001 C 254.43571750710228 540.8861679360001 258.32155983204774 537 263.114990234375 537 C 267.90842063670226 537 271.79426296164775 540.8861679360001 271.79426296164775 545.6800000000001 C 271.79426296164775 550.473832064 267.90842063670226 554.36 263.114990234375 554.36 C 258.32155983204774 554.36 254.43571750710228 550.473832064 254.43571750710228 545.6800000000001 Z" stroke-miterlimit="10"/></g><g transform="translate(-206,-318) scale(1,1)"><path fill="none" stroke="#000000" d="M 263.114990234375 554.36 L 263.114990234375 571.64" stroke-miterlimit="10"/></g><g transform="translate(-206,-318) scale(1,1)"><path fill="none" stroke="#000000" d="M 253.92517205255683 560.84 L 272.30480841619317 560.84" stroke-miterlimit="10"/></g><g transform="translate(-206,-318) scale(1,1)"><path fill="none" stroke="#000000" d="M 263.114990234375 571.64 L 250.35135387073865 589" stroke-miterlimit="10"/></g><g transform="translate(-206,-318) scale(1,1)"><path fill="none" stroke="#000000" d="M 263.114990234375 571.64 L 275.87862659801135 589" stroke-miterlimit="10"/></g><g transform="translate(-206,-318) scale(1,1)"><g><path fill="none" stroke="none"/><text fill="#000000" stroke="none" font-family="Arial" font-size="13px" font-style="normal" font-weight="bold" text-decoration="none" x="224.825927734375" y="609.5">Administrator</text></g></g><g transform="translate(-206,-318) scale(1,1)"><path fill="#ffffff" stroke="none" d="M 251.30070774147728 409.68 C 251.30070774147728 404.886167936 255.1865500664227 401 259.97998046875 401 C 264.77341087107726 401 268.65925319602275 404.886167936 268.65925319602275 409.68 C 268.65925319602275 414.473832064 264.77341087107726 418.36 259.97998046875 418.36 C 255.1865500664227 418.36 251.30070774147728 414.473832064 251.30070774147728 409.68 Z"/></g><g transform="translate(-206,-318) scale(1,1)"><path fill="none" stroke="#000000" d="M 251.30070774147728 409.68 C 251.30070774147728 404.886167936 255.1865500664227 401 259.97998046875 401 C 264.77341087107726 401 268.65925319602275 404.886167936 268.65925319602275 409.68 C 268.65925319602275 414.473832064 264.77341087107726 418.36 259.97998046875 418.36 C 255.1865500664227 418.36 251.30070774147728 414.473832064 251.30070774147728 409.68 Z" stroke-miterlimit="10"/></g><g transform="translate(-206,-318) scale(1,1)"><path fill="none" stroke="#000000" d="M 259.97998046875 418.36 L 259.97998046875 435.64" stroke-miterlimit="10"/></g><g transform="translate(-206,-318) scale(1,1)"><path fill="none" stroke="#000000" d="M 250.79016228693183 424.84 L 269.16979865056817 424.84" stroke-miterlimit="10"/></g><g transform="translate(-206,-318) scale(1,1)"><path fill="none" stroke="#000000" d="M 259.97998046875 435.64 L 247.21634410511365 453" stroke-miterlimit="10"/></g><g transform="translate(-206,-318) scale(1,1)"><path fill="none" stroke="#000000" d="M 259.97998046875 435.64 L 272.74361683238635 453" stroke-miterlimit="10"/></g><g transform="translate(-206,-318) scale(1,1)"><g><path fill="none" stroke="none"/><text fill="#000000" stroke="none" font-family="Arial" font-size="13px" font-style="normal" font-weight="bold" text-decoration="none" x="238.66455078125" y="473.5">Jucator</text></g></g><g transform="translate(-206,-318) scale(1,1)"><path fill="#ffffff" stroke="none" d="M 399.62663547585225 465.68 C 399.62663547585225 460.886167936 403.51247780079774 457 408.305908203125 457 C 413.09933860545226 457 416.98518093039775 460.886167936 416.98518093039775 465.68 C 416.98518093039775 470.473832064 413.09933860545226 474.36 408.305908203125 474.36 C 403.51247780079774 474.36 399.62663547585225 470.473832064 399.62663547585225 465.68 Z"/></g><g transform="translate(-206,-318) scale(1,1)"><path fill="none" stroke="#000000" d="M 399.62663547585225 465.68 C 399.62663547585225 460.886167936 403.51247780079774 457 408.305908203125 457 C 413.09933860545226 457 416.98518093039775 460.886167936 416.98518093039775 465.68 C 416.98518093039775 470.473832064 413.09933860545226 474.36 408.305908203125 474.36 C 403.51247780079774 474.36 399.62663547585225 470.473832064 399.62663547585225 465.68 Z" stroke-miterlimit="10"/></g><g transform="translate(-206,-318) scale(1,1)"><path fill="none" stroke="#000000" d="M 408.305908203125 474.36 L 408.305908203125 491.64" stroke-miterlimit="10"/></g><g transform="translate(-206,-318) scale(1,1)"><path fill="none" stroke="#000000" d="M 399.11609002130683 480.84 L 417.49572638494317 480.84" stroke-miterlimit="10"/></g><g transform="translate(-206,-318) scale(1,1)"><path fill="none" stroke="#000000" d="M 408.305908203125 491.64 L 395.54227183948865 509" stroke-miterlimit="10"/></g><g transform="translate(-206,-318) scale(1,1)"><path fill="none" stroke="#000000" d="M 408.305908203125 491.64 L 421.06954456676135 509" stroke-miterlimit="10"/></g><g transform="translate(-206,-318) scale(1,1)"><g><path fill="none" stroke="none"/><text fill="#000000" stroke="none" font-family="Arial" font-size="13px" font-style="normal" font-weight="bold" text-decoration="none" x="383.023193359375" y="529.5">Utilizator</text></g></g><g transform="translate(-206,-318) scale(1,1)"><path fill="none" stroke="#000000" d="M 289 450 L 375 483" stroke-miterlimit="10"/></g><g transform="translate(-206,-318) scale(1,1)"><path fill="none" stroke="#000000" d="M 311 548 L 375 513" stroke-miterlimit="10"/></g><g transform="translate(-206,-318) scale(1,1)"><path fill="#C0C0C0" stroke="none" d="M 599 352 C 599 342.6111584 641.7568016 335 694.5 335 C 747.2431984 335 790 342.6111584 790 352 C 790 361.3888416 747.2431984 369 694.5 369 C 641.7568016 369 599 361.3888416 599 352 Z" opacity="0.2"/></g><g transform="translate(-206,-318) scale(1,1)"><path fill="#ffffff" stroke="none" d="M 592 345 C 592 335.6111584 634.7568016 328 687.5 328 C 740.2431984 328 783 335.6111584 783 345 C 783 354.3888416 740.2431984 362 687.5 362 C 634.7568016 362 592 354.3888416 592 345 Z"/></g><g transform="translate(-206,-318) scale(1,1)"><path fill="none" stroke="#000000" d="M 592 345 C 592 335.6111584 634.7568016 328 687.5 328 C 740.2431984 328 783 335.6111584 783 345 C 783 354.3888416 740.2431984 362 687.5 362 C 634.7568016 362 592 354.3888416 592 345 Z" stroke-miterlimit="10"/></g><g transform="translate(-206,-318) scale(1,1)"><g><path fill="none" stroke="none"/><text fill="#000000" stroke="none" font-family="Arial" font-size="13px" font-style="normal" font-weight="bold" text-decoration="none" x="629.815673828125" y="352">Vizionare lista jocuri</text></g></g><g transform="translate(-206,-318) scale(1,1)"><path fill="#C0C0C0" stroke="none" d="M 607 448 C 607 438.6111584 657.36796 431 719.5 431 C 781.63204 431 832 438.6111584 832 448 C 832 457.3888416 781.63204 465 719.5 465 C 657.36796 465 607 457.3888416 607 448 Z" opacity="0.2"/></g><g transform="translate(-206,-318) scale(1,1)"><path fill="#ffffff" stroke="none" d="M 600 441 C 600 431.6111584 650.36796 424 712.5 424 C 774.63204 424 825 431.6111584 825 441 C 825 450.3888416 774.63204 458 712.5 458 C 650.36796 458 600 450.3888416 600 441 Z"/></g><g transform="translate(-206,-318) scale(1,1)"><path fill="none" stroke="#000000" d="M 600 441 C 600 431.6111584 650.36796 424 712.5 424 C 774.63204 424 825 431.6111584 825 441 C 825 450.3888416 774.63204 458 712.5 458 C 650.36796 458 600 450.3888416 600 441 Z" stroke-miterlimit="10"/></g><g transform="translate(-206,-318) scale(1,1)"><g><path fill="none" stroke="none"/><text fill="#000000" stroke="none" font-family="Arial" font-size="13px" font-style="normal" font-weight="bold" text-decoration="none" x="642.88525390625" y="448">Vizionare joc in derulare</text></g></g><g transform="translate(-206,-318) scale(1,1)"><path fill="#C0C0C0" stroke="none" d="M 639 520 C 639 510.6111584 681.9806592 503 735 503 C 788.0193408 503 831 510.6111584 831 520 C 831 529.3888416 788.0193408 537 735 537 C 681.9806592 537 639 529.3888416 639 520 Z" opacity="0.2"/></g><g transform="translate(-206,-318) scale(1,1)"><path fill="#ffffff" stroke="none" d="M 632 513 C 632 503.6111584 674.9806592 496 728 496 C 781.0193408 496 824 503.6111584 824 513 C 824 522.3888416 781.0193408 530 728 530 C 674.9806592 530 632 522.3888416 632 513 Z"/></g><g transform="translate(-206,-318) scale(1,1)"><path fill="none" stroke="#000000" d="M 632 513 C 632 503.6111584 674.9806592 496 728 496 C 781.0193408 496 824 503.6111584 824 513 C 824 522.3888416 781.0193408 530 728 530 C 674.9806592 530 632 522.3888416 632 513 Z" stroke-miterlimit="10"/></g><g transform="translate(-206,-318) scale(1,1)"><g><path fill="none" stroke="none"/><text fill="#000000" stroke="none" font-family="Arial" font-size="13px" font-style="normal" font-weight="bold" text-decoration="none" x="669.230224609375" y="520">Vizionare comentarii</text></g></g><g transform="translate(-206,-318) scale(1,1)"><path fill="#C0C0C0" stroke="none" d="M 679 592 C 679 582.6111584 721.9806592 575 775 575 C 828.0193408 575 871 582.6111584 871 592 C 871 601.3888416 828.0193408 609 775 609 C 721.9806592 609 679 601.3888416 679 592 Z" opacity="0.2"/></g><g transform="translate(-206,-318) scale(1,1)"><path fill="#ffffff" stroke="none" d="M 672 585 C 672 575.6111584 714.9806592 568 768 568 C 821.0193408 568 864 575.6111584 864 585 C 864 594.3888416 821.0193408 602 768 602 C 714.9806592 602 672 594.3888416 672 585 Z"/></g><g transform="translate(-206,-318) scale(1,1)"><path fill="none" stroke="#000000" d="M 672 585 C 672 575.6111584 714.9806592 568 768 568 C 821.0193408 568 864 575.6111584 864 585 C 864 594.3888416 821.0193408 602 768 602 C 714.9806592 602 672 594.3888416 672 585 Z" stroke-miterlimit="10"/></g><g transform="translate(-206,-318) scale(1,1)"><g><path fill="none" stroke="none"/><text fill="#000000" stroke="none" font-family="Arial" font-size="13px" font-style="normal" font-weight="bold" text-decoration="none" x="709.115966796875" y="592">Incarcare comentarii</text></g></g><g transform="translate(-206,-318) scale(1,1)"><path fill="#C0C0C0" stroke="none" d="M 631 656 C 631 646.6111584 676.6669504 639 733 639 C 789.3330496 639 835 646.6111584 835 656 C 835 665.3888416 789.3330496 673 733 673 C 676.6669504 673 631 665.3888416 631 656 Z" opacity="0.2"/></g><g transform="translate(-206,-318) scale(1,1)"><path fill="#ffffff" stroke="none" d="M 624 649 C 624 639.6111584 669.6669504 632 726 632 C 782.3330496 632 828 639.6111584 828 649 C 828 658.3888416 782.3330496 666 726 666 C 669.6669504 666 624 658.3888416 624 649 Z"/></g><g transform="translate(-206,-318) scale(1,1)"><path fill="none" stroke="#000000" d="M 624 649 C 624 639.6111584 669.6669504 632 726 632 C 782.3330496 632 828 639.6111584 828 649 C 828 658.3888416 782.3330496 666 726 666 C 669.6669504 666 624 658.3888416 624 649 Z" stroke-miterlimit="10"/></g><g transform="translate(-206,-318) scale(1,1)"><g><path fill="none" stroke="none"/><text fill="#000000" stroke="none" font-family="Arial" font-size="13px" font-style="normal" font-weight="bold" text-decoration="none" x="662.520263671875" y="656">Vizionare leaderboard</text></g></g><g transform="translate(-206,-318) scale(1,1)"><path fill="#C0C0C0" stroke="none" d="M 575 712 C 575 702.6111584 618.4283743999999 695 672 695 C 725.5716256000001 695 769 702.6111584 769 712 C 769 721.3888416 725.5716256000001 729 672 729 C 618.4283743999999 729 575 721.3888416 575 712 Z" opacity="0.2"/></g><g transform="translate(-206,-318) scale(1,1)"><path fill="#ffffff" stroke="none" d="M 568 705 C 568 695.6111584 611.4283743999999 688 665 688 C 718.5716256000001 688 762 695.6111584 762 705 C 762 714.3888416 718.5716256000001 722 665 722 C 611.4283743999999 722 568 714.3888416 568 705 Z"/></g><g transform="translate(-206,-318) scale(1,1)"><path fill="none" stroke="#000000" d="M 568 705 C 568 695.6111584 611.4283743999999 688 665 688 C 718.5716256000001 688 762 695.6111584 762 705 C 762 714.3888416 718.5716256000001 722 665 722 C 611.4283743999999 722 568 714.3888416 568 705 Z" stroke-miterlimit="10"/></g><g transform="translate(-206,-318) scale(1,1)"><g><path fill="none" stroke="none"/><text fill="#000000" stroke="none" font-family="Arial" font-size="13px" font-style="normal" font-weight="bold" text-decoration="none" x="605.02734375" y="712">Jucare Single-Player</text></g></g><g transform="translate(-206,-318) scale(1,1)"><path fill="#C0C0C0" stroke="none" d="M 479 768 C 479 758.6111584 519.5182256 751 569.5 751 C 619.4817744 751 660 758.6111584 660 768 C 660 777.3888416 619.4817744 785 569.5 785 C 519.5182256 785 479 777.3888416 479 768 Z" opacity="0.2"/></g><g transform="translate(-206,-318) scale(1,1)"><path fill="#ffffff" stroke="none" d="M 472 761 C 472 751.6111584 512.5182256 744 562.5 744 C 612.4817744 744 653 751.6111584 653 761 C 653 770.3888416 612.4817744 778 562.5 778 C 512.5182256 778 472 770.3888416 472 761 Z"/></g><g transform="translate(-206,-318) scale(1,1)"><path fill="none" stroke="#000000" d="M 472 761 C 472 751.6111584 512.5182256 744 562.5 744 C 612.4817744 744 653 751.6111584 653 761 C 653 770.3888416 612.4817744 778 562.5 778 C 512.5182256 778 472 770.3888416 472 761 Z" stroke-miterlimit="10"/></g><g transform="translate(-206,-318) scale(1,1)"><g><path fill="none" stroke="none"/><text fill="#000000" stroke="none" font-family="Arial" font-size="13px" font-style="normal" font-weight="bold" text-decoration="none" x="506.872314453125" y="768">Jucare Multi-Player</text></g></g><g transform="translate(-206,-318) scale(1,1)"><path fill="#C0C0C0" stroke="none" d="M 831 696 C 831 686.6111584 865.0263552 679 907 679 C 948.9736448 679 983 686.6111584 983 696 C 983 705.3888416 948.9736448 713 907 713 C 865.0263552 713 831 705.3888416 831 696 Z" opacity="0.2"/></g><g transform="translate(-206,-318) scale(1,1)"><path fill="#ffffff" stroke="none" d="M 824 689 C 824 679.6111584 858.0263552 672 900 672 C 941.9736448 672 976 679.6111584 976 689 C 976 698.3888416 941.9736448 706 900 706 C 858.0263552 706 824 698.3888416 824 689 Z"/></g><g transform="translate(-206,-318) scale(1,1)"><path fill="none" stroke="#000000" d="M 824 689 C 824 679.6111584 858.0263552 672 900 672 C 941.9736448 672 976 679.6111584 976 689 C 976 698.3888416 941.9736448 706 900 706 C 858.0263552 706 824 698.3888416 824 689 Z" stroke-miterlimit="10"/></g><g transform="translate(-206,-318) scale(1,1)"><g><path fill="none" stroke="none"/><text fill="#000000" stroke="none" font-family="Arial" font-size="13px" font-style="normal" font-weight="bold" text-decoration="none" x="854.115966796875" y="696">Salvare progres</text></g></g><g transform="translate(-206,-318) scale(1,1)"><path fill="#C0C0C0" stroke="none" d="M 903 616 C 903 606.6111584 944.413656 599 995.5 599 C 1046.586344 599 1088 606.6111584 1088 616 C 1088 625.3888416 1046.586344 633 995.5 633 C 944.413656 633 903 625.3888416 903 616 Z" opacity="0.2"/></g><g transform="translate(-206,-318) scale(1,1)"><path fill="#ffffff" stroke="none" d="M 896 609 C 896 599.6111584 937.413656 592 988.5 592 C 1039.586344 592 1081 599.6111584 1081 609 C 1081 618.3888416 1039.586344 626 988.5 626 C 937.413656 626 896 618.3888416 896 609 Z"/></g><g transform="translate(-206,-318) scale(1,1)"><path fill="none" stroke="#000000" d="M 896 609 C 896 599.6111584 937.413656 592 988.5 592 C 1039.586344 592 1081 599.6111584 1081 609 C 1081 618.3888416 1039.586344 626 988.5 626 C 937.413656 626 896 618.3888416 896 609 Z" stroke-miterlimit="10"/></g><g transform="translate(-206,-318) scale(1,1)"><g><path fill="none" stroke="none"/><text fill="#000000" stroke="none" font-family="Arial" font-size="13px" font-style="normal" font-weight="bold" text-decoration="none" x="931.421875" y="616">Descarcare progres</text></g></g><g transform="translate(-206,-318) scale(1,1)"><path fill="#C0C0C0" stroke="none" d="M 767 824 C 767 814.6111584 827.441552 807 902 807 C 976.558448 807 1037 814.6111584 1037 824 C 1037 833.3888416 976.558448 841 902 841 C 827.441552 841 767 833.3888416 767 824 Z" opacity="0.2"/></g><g transform="translate(-206,-318) scale(1,1)"><path fill="#ffffff" stroke="none" d="M 760 817 C 760 807.6111584 820.441552 800 895 800 C 969.558448 800 1030 807.6111584 1030 817 C 1030 826.3888416 969.558448 834 895 834 C 820.441552 834 760 826.3888416 760 817 Z"/></g><g transform="translate(-206,-318) scale(1,1)"><path fill="none" stroke="#000000" d="M 760 817 C 760 807.6111584 820.441552 800 895 800 C 969.558448 800 1030 807.6111584 1030 817 C 1030 826.3888416 969.558448 834 895 834 C 820.441552 834 760 826.3888416 760 817 Z" stroke-miterlimit="10"/></g><g transform="translate(-206,-318) scale(1,1)"><g><path fill="none" stroke="none"/><text fill="#000000" stroke="none" font-family="Arial" font-size="13px" font-style="normal" font-weight="bold" text-decoration="none" x="810.45556640625" y="824">Incarcare scor in leaderboard</text></g></g><g transform="translate(-206,-318) scale(1,1)"><path fill="#C0C0C0" stroke="none" d="M 399 928 C 399 918.6111584 440.413656 911 491.5 911 C 542.586344 911 584 918.6111584 584 928 C 584 937.3888416 542.586344 945 491.5 945 C 440.413656 945 399 937.3888416 399 928 Z" opacity="0.2"/></g><g transform="translate(-206,-318) scale(1,1)"><path fill="#ffffff" stroke="none" d="M 392 921 C 392 911.6111584 433.413656 904 484.5 904 C 535.586344 904 577 911.6111584 577 921 C 577 930.3888416 535.586344 938 484.5 938 C 433.413656 938 392 930.3888416 392 921 Z"/></g><g transform="translate(-206,-318) scale(1,1)"><path fill="none" stroke="#000000" d="M 392 921 C 392 911.6111584 433.413656 904 484.5 904 C 535.586344 904 577 911.6111584 577 921 C 577 930.3888416 535.586344 938 484.5 938 C 433.413656 938 392 930.3888416 392 921 Z" stroke-miterlimit="10"/></g><g transform="translate(-206,-318) scale(1,1)"><g><path fill="none" stroke="none"/><text fill="#000000" stroke="none" font-family="Arial" font-size="13px" font-style="normal" font-weight="bold" text-decoration="none" x="427.780517578125" y="928">Stergere comentarii</text></g></g><g transform="translate(-206,-318) scale(1,1)"><path fill="none" stroke="#000000" d="M 442 477 L 654 363" stroke-miterlimit="10"/></g><g transform="translate(-206,-318) scale(1,1)"><path fill="none" stroke="#000000" d="M 442 489 L 611 459" stroke-miterlimit="10"/></g><g transform="translate(-206,-318) scale(1,1)"><path fill="none" stroke="#000000" d="M 442 497 L 631 508" stroke-miterlimit="10"/></g><g transform="translate(-206,-318) scale(1,1)"><path fill="none" stroke="#000000" d="M 442 503 L 696 567" stroke-miterlimit="10"/></g><g transform="translate(-206,-318) scale(1,1)"><path fill="none" stroke="#000000" d="M 442 511 L 689 631" stroke-miterlimit="10"/></g><g transform="translate(-206,-318) scale(1,1)"><path fill="none" stroke="#000000" d="M 442 522 L 643 687" stroke-miterlimit="10"/></g><g transform="translate(-206,-318) scale(1,1)"><path fill="none" stroke="#000000" d="M 432 536 L 552 743" stroke-miterlimit="10"/></g><g transform="translate(-206,-318) scale(1,1)"><path fill="none" stroke="#000000" d="M 289 616 L 473 903" stroke-miterlimit="10"/></g><g transform="translate(-206,-318) scale(1,1)"><path fill="none" stroke="#000000" d="M 823 694 L 763 698" stroke-miterlimit="10" stroke-dasharray="3"/></g><g transform="translate(-206,-318) scale(1,1)"><path fill="none" stroke="#000000" d="M 772.8601531811474 693.1237945855094 L 763 698 L 773.4201790929724 701.5241832628826" stroke-miterlimit="10"/></g><g transform="translate(-206,-318) scale(1,1)"><g><path fill="none" stroke="none"/><text fill="#000000" stroke="none" font-family="Arial" font-size="13px" font-style="normal" font-weight="normal" text-decoration="none" x="766.5" y="731.5">«include»</text></g></g><g transform="translate(-206,-318) scale(1,1)"><path fill="none" stroke="#000000" d="M 968 627 L 920 671" stroke-miterlimit="10" stroke-dasharray="3"/></g><g transform="translate(-206,-318) scale(1,1)"><path fill="none" stroke="#000000" d="M 924.6469830248906 661.0297668649936 L 920 671 L 930.3359326687327 667.235893749185" stroke-miterlimit="10"/></g><g transform="translate(-206,-318) scale(1,1)"><g><path fill="none" stroke="none"/><text fill="#000000" stroke="none" font-family="Arial" font-size="13px" font-style="normal" font-weight="normal" text-decoration="none" x="937.5" y="677.5">«extend»</text></g></g><g transform="translate(-206,-318) scale(1,1)"><path fill="none" stroke="#000000" d="M 654 776 L 788 799" stroke-miterlimit="10" stroke-dasharray="3"/></g><g transform="translate(-206,-318) scale(1,1)"><path fill="none" stroke="#000000" d="M 777.2716818408484 801.4296480148405 L 788 799 L 778.695912891747 793.1319540661274" stroke-miterlimit="10"/></g><g transform="translate(-206,-318) scale(1,1)"><g><path fill="none" stroke="none"/><text fill="#000000" stroke="none" font-family="Arial" font-size="13px" font-style="normal" font-weight="normal" text-decoration="none" x="698.5" y="763.5">«include»</text></g></g></g></svg>